<svg version="1.1" id="Layer_1" xmlns="http://www.w3.org/2000/svg" xmlns:xlink="http://www.w3.org/1999/xlink" x="0px" y="0px" width="100%" viewBox="0 0 592 576" enable-background="new 0 0 592 576" xml:space="preserve">
    <path fill="#ff1414" opacity="1.000000" stroke="none" d="
                                M279.461365,207.394958
                                	C262.309570,171.993469 285.001221,133.605850 323.983276,132.138565
                                	C338.161224,131.604889 350.925690,136.656754 361.132233,146.744247
                                	C392.891327,178.132843 424.653137,209.522095 456.083710,241.238358
                                	C474.475433,259.797272 475.127228,289.562256 458.335083,310.187378
                                	C442.509003,329.625977 412.998383,334.180695 391.337524,320.520844
                                	C389.395569,319.296173 387.483795,318.023773 385.146057,316.875305
                                	C387.534180,319.520813 387.169678,321.992920 385.075653,324.143188
                                	C385.966766,325.915100 387.513916,325.524689 388.721222,325.911438
                                	C396.881866,328.525543 399.515228,336.868225 393.835907,343.335510
                                	C389.228760,348.581909 384.058350,353.336975 379.093719,358.265625
                                	C361.945984,375.289185 344.764984,392.279327 327.631805,409.317566
                                	C324.418274,412.513336 320.823029,414.024048 316.337280,412.561584
                                	C312.282959,411.239716 310.113556,408.263245 309.278961,404.230133
                                	C308.492126,400.427795 310.230560,397.451050 312.587585,394.710480
                                	C314.656250,392.305115 318.098053,390.787262 317.466766,386.611542
                                	C317.380798,386.042969 319.054688,385.116608 320.007904,384.501892
                                	C321.946594,383.251648 324.310852,382.655914 325.500916,380.048279
                                	C320.496155,382.556519 315.484253,385.050781 310.489777,387.579407
                                	C308.261017,388.707794 306.117767,390.016357 303.847595,391.049561
                                	C298.111725,393.660034 292.326172,391.892578 289.643768,386.822418
                                	C286.837097,381.517395 288.749207,375.440155 294.281494,372.295959
                                	C299.039551,369.591827 303.839569,366.961487 308.579926,364.008484
                                	C303.266022,364.508698 297.987946,372.372833 293.153931,363.995880
                                	C290.543030,364.517059 289.500275,366.376984 288.135071,367.737946
                                	C262.997253,392.797516 237.833389,417.831696 212.854797,443.049316
                                	C209.489395,446.446930 207.548920,446.482239 204.187637,443.041748
                                	C188.939514,427.434448 173.501251,412.009216 157.916275,396.738007
                                	C154.918289,393.800354 154.829041,392.156342 157.809769,389.208038
                                	C183.044006,364.248352 208.142014,339.150818 233.252487,314.066223
                                	C234.750137,312.570129 236.650925,311.350037 237.392960,308.887512
                                	C236.375916,307.541107 235.295410,306.110687 233.994873,304.389008
                                	C237.254471,300.060242 242.787415,299.254242 246.236969,295.231079
                                	C239.116745,298.808380 231.995575,302.383820 224.876923,305.964264
                                	C223.093140,306.861450 221.386749,307.964539 219.524796,308.644348
                                	C214.209305,310.585052 208.750259,308.433807 206.350540,303.621857
                                	C203.769318,298.445923 205.300797,292.868011 210.651443,289.957581
                                	C225.281296,281.999817 240.024094,274.249298 254.740173,266.450684
                                	C263.468933,261.824951 272.231812,257.263611 280.748169,252.231857
                                	C271.579926,255.359619 263.405579,260.487946 254.847809,264.826263
                                	C242.517471,271.077118 230.249390,277.452362 218.012009,283.883514
                                	C215.774933,285.059174 214.049683,285.223145 212.285904,283.200104
                                	C210.450562,281.094940 207.939346,279.584839 206.274307,276.138062
                                	C228.549576,263.160065 251.954910,252.305542 274.448608,239.820450
                                	C274.228973,239.398102 274.009338,238.975754 273.789703,238.553406
                                	C266.515411,242.336472 259.242554,246.122299 251.966553,249.902084
                                	C232.456055,260.037476 212.982620,270.245392 193.409164,280.257782
                                	C187.660797,283.198212 181.721664,281.409546 178.993149,276.492859
                                	C176.034225,271.160980 177.550873,265.082611 183.394821,262.004852
                                	C212.429672,246.713547 241.543594,231.571030 270.713318,216.538422
                                	C276.260010,213.679947 281.860229,215.291077 286.162415,219.716629
                                	C300.203339,234.160202 314.332428,248.518036 328.427612,262.908844
                                	C328.880005,262.465881 329.332428,262.022919 329.784821,261.579956
                                	C324.298187,256.065155 318.815216,250.546677 313.324097,245.036362
                                	C304.855804,236.538574 296.398590,228.029663 287.902374,219.559875
                                	C284.432556,216.100906 281.940186,211.985382 279.461365,207.394958
                                M346.980225,344.451385
                                	C349.555389,343.045532 352.130585,341.639679 354.705750,340.233826
                                	C354.536438,339.951935 354.367096,339.670044 354.197784,339.388153
                                	C347.526978,342.817963 340.856201,346.247803 334.185394,349.677612
                                	C334.363647,350.034058 334.541901,350.390533 334.720154,350.746979
                                	C338.585480,348.755524 342.450806,346.764038 346.980225,344.451385
                                M363.961090,319.935516
                                	C367.063263,323.117645 369.891632,326.604767 373.893524,328.791565
                                	C370.631287,325.600891 368.316559,321.396912 363.961090,319.935516
                                M286.524658,240.965454
                                	C284.926666,239.518646 283.328674,238.071854 281.730682,236.625061
                                	C284.127533,240.416763 286.790466,243.828918 291.094208,246.851685
                                	C290.019714,243.973785 288.294281,242.884277 286.524658,240.965454
                                z"/>
    <path fill="#ff1414" opacity="1.000000" stroke="none" d="
                                M445.073364,59.059887
                                	C462.050934,76.237961 478.989685,93.454628 496.017639,110.582611
                                	C511.171295,125.825264 526.597595,140.800491 541.582825,156.205856
                                	C556.057251,171.086151 559.856384,193.678711 551.600403,212.312729
                                	C543.006836,231.708450 523.809570,243.937408 502.671967,243.247787
                                	C494.054596,242.966644 485.930298,240.610825 478.454956,236.220596
                                	C476.050995,234.808777 473.679108,233.342377 470.883240,231.946594
                                	C474.287537,236.458649 470.356232,238.276688 468.122620,240.567978
                                	C462.141907,246.703217 462.875916,246.114990 457.590851,240.820068
                                	C424.994476,208.162888 392.235687,175.667419 359.416504,143.233932
                                	C356.693817,140.543243 356.435608,138.683121 359.531342,136.557526
                                	C362.705658,134.377991 364.031769,129.323578 369.661987,130.473267
                                	C368.487183,128.432495 367.521820,126.703163 366.508148,125.002647
                                	C354.114471,104.211884 357.092041,78.858246 373.909485,62.044155
                                	C390.774353,45.182659 416.303711,41.975224 436.931427,54.096222
                                	C438.644135,55.102638 440.471527,55.913925 442.809875,57.093590
                                	C443.940521,57.934162 444.506958,58.497025 445.073364,59.059887
                                M464.326813,144.484528
                                	C466.851105,145.189392 469.393036,145.499435 471.053864,142.950333
                                	C472.619019,140.548126 471.957886,137.886932 470.390472,135.923050
                                	C464.584045,128.647842 458.690979,121.369530 448.254730,120.735062
                                	C446.326202,120.617813 444.199829,119.372208 442.786102,121.541824
                                	C441.439941,123.607697 442.211639,125.800758 443.368713,127.662766
                                	C444.496216,129.477188 445.829254,131.226913 447.350067,132.722229
                                	C452.132324,137.424225 457.985046,140.656616 464.326813,144.484528
                                M397.963867,160.537354
                                	C413.182159,175.694366 428.400452,190.851379 443.618744,206.008392
                                	C443.735596,205.888321 443.852417,205.768250 443.969238,205.648178
                                	C426.122986,187.755188 408.276703,169.862213 390.430450,151.969223
                                	C390.111206,152.276260 389.791962,152.583298 389.472687,152.890335
                                	C392.137726,155.271759 394.802734,157.653168 397.963867,160.537354
                                z"/>
    <path fill="#ff1414" opacity="1.000000" stroke="none" d="
                                M144.726166,385.173889
                                	C165.669998,405.979004 186.308914,426.575012 207.099854,447.016357
                                	C209.850479,449.720734 209.795425,451.530060 207.019943,453.881134
                                	C205.118698,455.491730 203.443588,457.369812 201.672867,459.133789
                                	C196.255341,464.530731 196.256393,464.531799 190.177734,459.999420
                                	C191.742447,461.965149 192.116913,463.622009 190.127487,465.589874
                                	C173.313629,482.221222 156.593338,498.947144 139.578766,515.910034
                                	C141.978699,518.293213 140.728714,520.310791 138.508972,522.321533
                                	C136.041550,524.556702 133.763031,526.999268 131.368774,529.316956
                                	C130.659393,530.003662 129.607529,531.259155 129.101746,531.090027
                                	C124.295975,529.483276 122.408806,533.434631 119.751442,535.813477
                                	C116.186340,539.004944 112.155487,538.848389 108.017746,537.562805
                                	C97.024612,534.147156 88.442139,527.045105 80.497467,519.099182
                                	C75.061012,513.661926 70.363815,507.610199 66.676285,500.818146
                                	C60.277855,489.032867 61.047871,484.571655 71.236664,475.713928
                                	C68.470131,471.771851 64.805367,468.643738 61.337593,465.372498
                                	C58.996895,463.164490 57.806667,460.779236 57.853313,457.496338
                                	C58.000080,447.167297 57.891785,436.834930 57.978893,426.504639
                                	C58.029129,420.547150 59.934315,418.262573 65.808945,416.659729
                                	C80.769394,412.577850 90.130142,402.817566 94.553978,388.146576
                                	C96.340309,382.222473 98.230782,380.663055 104.493408,380.653473
                                	C114.491165,380.638184 124.494362,380.850647 134.484222,380.571686
                                	C138.714142,380.453583 141.940582,381.623199 144.726166,385.173889
                                M84.765114,446.103851
                                	C86.355751,442.760162 86.272499,439.612030 83.383263,437.011047
                                	C80.994705,434.860718 78.227539,433.931030 75.116394,435.448914
                                	C72.168503,436.887054 70.443962,439.328888 70.494766,442.584167
                                	C70.542122,445.618927 72.095139,448.059265 74.992805,449.225464
                                	C78.644058,450.694916 81.848335,449.898499 84.765114,446.103851
                                M115.284737,394.834808
                                	C112.584564,400.731323 114.590729,405.821808 120.044121,406.738007
                                	C123.764656,407.363098 126.614014,405.955536 128.145859,402.494202
                                	C129.621933,399.158783 129.325897,395.929749 126.329086,393.502075
                                	C122.637817,390.511902 119.039375,390.911499 115.284737,394.834808
                                M152.983917,436.546265
                                	C160.192062,436.523651 166.376480,439.608215 173.100845,443.607574
                                	C162.614944,432.941467 139.406311,432.515961 128.689865,442.775757
                                	C136.536774,438.165314 143.954285,435.751587 152.983917,436.546265
                                z"/>
    <path fill="#ff1414" opacity="1.000000" stroke="none" d="
                                M471.162964,538.895569
                                	C468.092560,542.188171 465.418488,541.829834 462.692657,538.300537
                                	C461.080109,536.212646 459.095520,534.365051 457.071777,532.653503
                                	C454.478668,530.460449 454.497681,528.276184 456.914917,525.263794
                                	C465.886963,516.128662 474.473999,507.554230 483.376984,498.879333
                                	C486.257843,496.421906 488.891602,494.135101 491.374908,491.695190
                                	C499.252686,483.955170 499.230743,483.933319 491.887878,476.126740
                                	C491.545471,475.762726 491.239105,475.361237 490.873383,475.023254
                                	C482.208130,467.015076 475.077148,457.316254 464.925262,450.957275
                                	C451.513885,442.556549 433.393250,443.551025 422.980225,453.015656
                                	C422.997803,453.004333 423.033997,452.983185 423.033997,452.983185
                                	C415.636932,457.653534 410.593475,464.850098 404.182251,470.586365
                                	C399.370300,474.891754 399.510193,475.047089 394.821716,470.372589
                                	C392.704407,468.261536 390.705139,466.011169 388.434021,464.080841
                                	C385.919678,461.943817 385.461670,459.877136 388.218567,456.909027
                                	C390.035950,454.953796 391.459381,453.509308 392.882812,452.064850
                                	C395.772064,450.876404 397.546448,448.355896 399.650360,446.269318
                                	C417.135223,428.928619 434.603668,411.570923 451.977386,394.119080
                                	C454.393219,391.692413 456.896759,390.609680 460.337311,390.667969
                                	C470.651031,390.842560 480.970825,390.818909 491.285828,390.685608
                                	C496.377625,390.619751 499.294891,392.841187 500.645294,397.735046
                                	C504.893341,413.129822 514.671387,423.061920 530.215759,427.148102
                                	C535.000793,428.405945 537.441589,431.221863 537.341614,436.456085
                                	C537.141479,446.935303 537.186340,457.422638 537.345093,467.903351
                                	C537.394836,471.192230 536.239014,473.541290 533.937073,475.780762
                                	C527.622864,481.923553 521.481262,488.243622 514.928650,495.057343
                                	C500.111664,510.045959 485.637329,524.470764 471.162964,538.895569
                                M516.704956,460.505096
                                	C520.626526,460.321655 523.388611,458.362335 524.510864,454.667328
                                	C525.312378,452.028442 524.893982,449.366882 522.622070,447.346252
                                	C519.993591,445.008484 516.984436,444.483856 513.812988,445.850403
                                	C510.952667,447.082855 509.450226,449.580994 509.451965,452.595673
                                	C509.454407,456.853790 512.143372,459.172668 516.704956,460.505096
                                M466.409332,408.006866
                                	C466.480713,413.574005 468.601044,416.510834 472.875763,416.963348
                                	C476.963623,417.396088 480.689209,414.856964 481.531830,411.063934
                                	C482.339966,407.426086 479.921875,403.244751 476.037262,402.167877
                                	C471.395569,400.881165 468.477081,403.248962 466.409332,408.006866
                                z"/>
    <path fill="#ff1414" opacity="1.000000" stroke="none" d="
                                M62.678413,128.762146
                                	C65.416275,121.728973 67.840637,114.978645 70.727936,108.432495
                                	C72.571060,104.253723 72.277519,101.327866 68.695671,98.003639
                                	C60.518372,90.414513 52.809456,82.319984 44.931412,74.409698
                                	C43.113098,72.583939 40.680401,71.099091 42.946899,67.755768
                                	C44.098873,66.056503 41.700436,64.978928 40.851257,63.662102
                                	C39.669369,61.829357 39.050034,59.952145 40.807098,58.233181
                                	C42.515064,56.562256 44.496414,56.745712 46.167450,58.324085
                                	C47.987850,60.043537 49.542957,61.211636 52.207859,59.472336
                                	C53.996258,58.305107 55.134392,60.463711 56.244408,61.560863
                                	C64.539787,69.760071 72.887527,77.911026 80.988823,86.299278
                                	C83.781944,89.191345 86.238136,90.039345 90.143280,88.407303
                                	C100.280403,84.170807 110.609825,80.395721 120.845154,76.392166
                                	C124.026527,75.147774 126.898048,75.048668 129.649307,77.538734
                                	C134.031387,81.504829 134.178787,83.486404 129.931396,87.771309
                                	C124.887405,92.859848 119.717972,97.827118 114.777855,103.013580
                                	C113.390373,104.470245 109.906715,105.931374 112.399063,108.490753
                                	C115.193336,111.360176 116.731377,107.629524 118.269073,106.147064
                                	C125.224960,99.441086 131.972641,92.519791 138.855331,85.736961
                                	C141.733734,82.900307 145.033127,82.410294 148.252304,85.059067
                                	C151.173080,87.462296 150.940384,91.340446 147.921875,94.774345
                                	C147.153442,95.648544 146.310547,96.463333 145.452209,97.251335
                                	C142.914917,99.580727 140.352814,101.883072 138.619003,105.045479
                                	C142.394852,102.422615 146.167404,99.795013 149.947372,97.178123
                                	C154.511215,94.018547 158.200775,94.084282 160.518967,97.354118
                                	C162.782303,100.546593 161.726974,104.255249 157.292282,107.496765
                                	C143.442429,117.620209 129.532944,127.662186 115.632042,137.715622
                                	C103.214233,146.696472 90.773796,155.646011 78.351456,164.620590
                                	C76.019463,166.305359 73.668343,167.921341 70.568321,167.101776
                                	C65.725151,165.821381 64.534523,160.134766 68.541466,155.951599
                                	C74.993294,149.216049 81.713524,142.737610 88.319756,136.149933
                                	C89.263512,135.208832 90.212166,134.272400 91.143692,133.319260
                                	C92.285446,132.151001 93.045242,130.965424 91.536705,129.480820
                                	C90.027832,127.995880 88.871140,128.785812 87.709366,129.936951
                                	C83.211624,134.393539 78.707436,138.843658 74.209740,143.300293
                                	C73.026245,144.472992 71.863937,145.667084 70.680420,146.839752
                                	C68.415405,149.084030 66.199196,151.850998 62.639057,149.088318
                                	C59.340763,146.528839 56.697067,143.607773 58.704632,138.887253
                                	C60.072689,135.670456 61.281166,132.385773 62.678413,128.762146
                                z"/>
    <path fill="#ff1414" opacity="1.000000" stroke="none" d="
                                M483.061035,498.979858
                                	C474.473999,507.554230 465.886963,516.128662 457.038147,524.947754
                                	C454.829559,525.384705 453.799988,523.958374 452.641449,522.806885
                                	C437.113342,507.373535 421.630676,491.894135 406.036896,476.527466
                                	C403.578766,474.105133 403.551514,472.364105 406.037933,469.990265
                                	C411.675079,464.608307 417.123413,459.028534 422.841248,453.256195
                                	C423.033997,452.983185 422.997803,453.004333 423.329926,452.913177
                                	C425.906677,451.741760 428.095947,450.522186 430.405060,449.604095
                                	C444.231171,444.106842 457.433014,445.486969 468.709290,455.182709
                                	C478.015686,463.184601 486.252533,472.425537 495.039764,481.039398
                                	C497.230743,483.187164 496.972473,484.831635 494.896912,486.864349
                                	C490.864349,490.813721 486.996887,494.931702 483.061035,498.979858
                                z"/>
    <path fill="#ff1414" opacity="1.000000" stroke="none" d="
                                M219.035553,199.917175
                                	C218.755737,200.224915 218.578003,200.336929 218.551056,200.477783
                                	C218.384598,201.348297 218.929688,201.139328 219.342102,200.929306
                                	C227.207825,196.923782 234.992599,192.750122 242.950348,188.937317
                                	C249.542374,185.778854 256.199707,188.940994 257.923523,195.682129
                                	C259.073853,200.180634 257.079071,204.696716 252.276855,207.292313
                                	C239.383286,214.261276 226.422424,221.107208 213.440506,227.910828
                                	C198.690750,235.640915 183.893646,243.280807 169.104233,250.934982
                                	C167.333786,251.851273 165.531693,252.749405 163.659027,253.416702
                                	C159.091141,255.044388 154.384735,253.530548 151.735321,249.733124
                                	C148.852432,245.601105 149.047287,240.734619 152.494537,236.874313
                                	C154.821411,234.268631 157.400299,231.887405 159.875977,229.415314
                                	C179.210312,210.109009 198.527420,190.785385 217.896606,171.514099
                                	C222.716385,166.718674 226.662231,165.763092 231.303787,167.910873
                                	C236.913696,170.506775 239.020111,177.467270 235.759186,182.711411
                                	C233.407257,186.493698 228.430878,188.461136 228.242996,193.851624
                                	C228.217560,194.581787 226.176392,195.337387 224.986328,195.910294
                                	C222.877304,196.925522 220.747177,197.873535 219.035553,199.917175
                                z"/>
    <path fill="#ff1414" opacity="1.000000" stroke="none" d="
                                M393.096008,451.794708
                                	C391.459381,453.509308 390.035950,454.953796 388.395874,456.594360
                                	C386.293579,456.906647 385.129272,455.685455 383.946381,454.503265
                                	C376.064087,446.625671 368.262787,438.664490 360.258362,430.913025
                                	C357.437042,428.180847 357.575836,426.322540 360.354431,423.590210
                                	C376.007690,408.197906 391.568176,392.709106 406.985748,377.081024
                                	C409.968323,374.057739 411.838074,373.658844 414.960693,376.958771
                                	C422.273956,384.687286 429.839783,392.195068 437.610687,399.463654
                                	C440.966980,402.602966 440.445221,404.510193 437.445740,407.462036
                                	C422.629089,422.043365 408.002686,436.818054 393.096008,451.794708
                                z"/>
    <path fill="#ff1414" opacity="1.000000" stroke="none" d="
                                M170.343109,172.309799
                                	C181.140305,164.461304 191.678024,156.865829 202.156845,149.189957
                                	C205.609634,146.660736 209.151337,145.395477 212.347198,149.092392
                                	C215.603333,152.859055 213.578384,156.152023 210.603058,159.110428
                                	C187.925735,181.658859 165.262711,204.221664 142.588806,226.773544
                                	C141.763535,227.594360 140.931335,228.429031 139.999374,229.117905
                                	C137.103806,231.258194 134.076736,231.627151 131.472198,228.834488
                                	C128.965088,226.146317 128.850906,222.889572 131.416504,220.294815
                                	C134.650650,217.023941 138.338181,214.201340 141.830124,211.185333
                                	C141.359161,210.681870 140.888214,210.178391 140.417252,209.674911
                                	C136.812775,212.217880 133.228256,214.789734 129.598557,217.296173
                                	C125.477463,220.141937 121.745361,219.928879 119.440781,216.790558
                                	C117.170532,213.698929 118.117744,210.089432 122.285873,207.061646
                                	C138.183197,195.513580 154.131454,184.035645 170.343109,172.309799
                                z"/>
    <path fill="#ff1414" opacity="1.000000" stroke="none" d="
                                M445.392029,59.148689
                                	C444.506958,58.497025 443.940521,57.934162 443.155884,57.166161
                                	C440.934845,52.933769 444.782043,51.703640 446.635864,49.799099
                                	C452.506012,43.768219 451.557861,43.700764 457.650604,49.792301
                                	C489.791840,81.927155 521.873474,114.121902 554.126038,146.144592
                                	C557.518250,149.512665 557.980713,151.840759 554.091370,154.776657
                                	C551.998535,156.356461 550.665649,158.851868 547.594971,160.185287
                                	C542.331726,154.199127 536.345825,148.737030 530.730835,142.930038
                                	C503.874847,115.155518 475.694672,88.718025 448.525085,61.262280
                                	C447.723480,60.452232 446.654846,59.906471 445.392029,59.148689
                                z"/>
    <path fill="#ff1414" opacity="1.000000" stroke="none" d="
                                M541.702148,124.293495
                                	C548.191956,130.786301 554.498169,136.965973 560.616699,143.326202
                                	C561.976624,144.739822 565.510193,146.175858 562.767822,148.758163
                                	C560.225525,151.152145 558.624329,147.867401 557.181763,146.452621
                                	C546.720520,136.193085 536.405640,125.784492 526.026550,115.440987
                                	C503.029785,92.523010 479.990326,69.647636 457.084290,46.639362
                                	C455.359100,44.906525 451.048737,42.874504 453.833099,40.093971
                                	C456.663727,37.267254 458.490143,41.713402 460.217896,43.391693
                                	C470.012878,52.906158 479.585388,62.649334 489.270172,72.277863
                                	C491.733643,74.726982 494.330170,77.042259 497.378540,79.899979
                                	C501.501831,73.771011 505.446594,75.062424 508.675568,80.111115
                                	C511.402222,79.845436 512.459412,77.955223 513.822510,76.608551
                                	C522.588684,67.948128 531.281555,59.213551 540.018311,50.523201
                                	C541.636719,48.913452 543.071289,46.839611 545.889526,48.859081
                                	C547.807068,50.233120 548.843750,48.197071 550.059998,47.230663
                                	C551.947937,45.730515 553.910217,45.059479 555.883362,46.890068
                                	C557.980652,48.835777 557.061218,50.844433 555.569885,52.623276
                                	C554.102051,54.374111 553.113464,55.886276 554.540283,58.349266
                                	C555.591431,60.163681 553.457764,61.274632 552.361877,62.380470
                                	C543.569702,71.252892 534.802490,80.153488 525.836304,88.848114
                                	C523.008362,91.590370 521.457275,93.780556 525.370544,96.741959
                                	C527.841797,98.612106 527.434753,100.657433 525.226196,102.517197
                                	C522.822876,104.540955 523.341248,106.284180 525.428162,108.281700
                                	C530.840271,113.461952 536.119019,118.781509 541.702148,124.293495
                                z"/>
    <path fill="#ff1414" opacity="1.000000" stroke="none" d="
                                M471.107605,539.269165
                                	C485.637329,524.470764 500.111664,510.045959 514.766113,495.354736
                                	C518.145996,493.758698 520.038269,490.885559 522.448486,488.640717
                                	C524.117004,487.086670 525.357849,487.080566 527.134949,488.560455
                                	C532.590820,493.104065 534.056885,497.097107 531.699158,503.949768
                                	C526.982910,517.657104 517.254517,527.656616 506.517975,536.758911
                                	C500.662689,541.723022 494.261475,545.955017 486.722473,548.005798
                                	C479.577362,549.949463 474.008362,546.906677 471.107605,539.269165
                                z"/>
    <path fill="#ff1414" opacity="1.000000" stroke="none" d="
                                M124.905655,160.951614
                                	C114.474228,168.445312 104.338844,175.736420 94.194405,183.014893
                                	C91.545647,184.915329 88.802284,185.646667 85.932846,183.450607
                                	C83.448524,181.549271 83.262566,178.963013 83.995193,176.235229
                                	C84.445747,174.557724 85.784531,173.480606 87.156296,172.490097
                                	C114.016640,153.095047 140.853989,133.668045 167.750381,114.323128
                                	C172.145996,111.161636 175.439590,111.422600 177.854034,114.600937
                                	C180.390808,117.940308 179.526154,121.161804 174.852402,124.582291
                                	C158.329193,136.674774 141.753876,148.696030 124.905655,160.951614
                                z"/>
    <path fill="#ff1414" opacity="1.000000" stroke="none" d="
                                M175.549072,138.533813
                                	C179.075317,135.984009 182.240540,133.539322 185.558350,131.323013
                                	C189.415222,128.746597 193.303940,129.144547 195.332214,132.091736
                                	C197.414032,135.116745 196.516739,138.942612 192.891663,141.571686
                                	C166.226715,160.910309 139.539459,180.218170 112.845535,199.516800
                                	C110.550194,201.176254 108.210724,202.951050 105.082581,201.820847
                                	C100.165665,200.044373 99.323509,194.148849 103.756622,190.634491
                                	C109.359276,186.192932 115.234802,182.092865 121.031792,177.899658
                                	C139.096436,164.832672 157.179565,151.791229 175.549072,138.533813
                                z"/>
    <path fill="#ff1414" opacity="1.000000" stroke="none" d="
                                M243.413086,228.490906
                                	C226.255127,237.433167 209.337860,246.039185 192.664932,255.095093
                                	C188.142456,257.551453 185.083847,257.377472 182.203568,253.184494
                                	C181.199524,251.722885 179.322647,250.885712 178.984039,248.505508
                                	C182.486008,245.617096 186.763840,243.810852 190.825623,241.680496
                                	C207.926239,232.711517 225.169952,224.006470 242.106827,214.739761
                                	C247.063217,212.027954 250.541916,211.980850 253.953308,216.520996
                                	C254.926208,217.815781 256.613556,218.577332 256.888123,220.886032
                                	C253.099823,224.125809 248.147598,225.768585 243.413086,228.490906
                                z"/>
    <path fill="#ff1414" opacity="1.000000" stroke="none" d="
                                M205.879761,178.879913
                                	C188.071579,196.628586 170.531250,214.145203 152.936279,231.606735
                                	C151.540314,232.992096 150.339005,235.604385 147.635880,233.849091
                                	C144.244339,231.646774 144.648315,229.547806 147.467773,226.775223
                                	C163.126740,211.376617 178.620239,195.809692 194.164383,180.294357
                                	C199.581360,174.887405 205.018372,169.499603 210.368942,164.027496
                                	C212.282349,162.070663 213.896088,161.275925 216.153839,163.662933
                                	C218.228973,165.856888 217.474335,167.374039 215.673279,169.115265
                                	C212.444107,172.237122 209.308411,175.455658 205.879761,178.879913
                                z"/>
    <path fill="#ff1414" opacity="1.000000" stroke="none" d="
                                M348.551941,417.247223
                                	C347.614044,415.396729 347.761200,414.013733 348.904053,412.751465
                                	C353.013824,408.212280 357.123383,403.672882 361.300568,399.058807
                                	C365.484833,402.588806 366.203430,406.290497 367.776245,409.481598
                                	C368.276611,410.496826 367.881561,411.488770 367.150970,412.230347
                                	C362.750885,416.697174 358.315613,421.129333 353.844482,425.620941
                                	C350.614563,423.272156 350.173096,420.113800 348.551941,417.247223
                                z"/>
    <path fill="#ff1414" opacity="1.000000" stroke="none" d="
                                M399.076508,360.951355
                                	C405.810303,364.044800 407.611816,372.170166 402.540558,377.103546
                                	C399.031342,380.517334 395.907898,384.392456 391.715088,387.228058
                                	C388.978302,384.542084 388.002258,381.343933 386.732910,378.343048
                                	C385.795563,376.127106 387.225830,374.689636 388.672119,373.182434
                                	C392.200989,369.504944 396.344910,366.359283 398.914185,361.375763
                                	C399.012177,361.009338 399.076508,360.951355 399.076508,360.951355
                                z"/>
    <path fill="#ff1414" opacity="1.000000" stroke="none" d="
                                M362.503052,396.454468
                                	C359.497375,400.230560 356.449432,403.434875 352.522736,405.910400
                                	C349.740204,403.284668 348.892548,399.824799 347.385620,396.743469
                                	C346.794708,395.535217 347.114838,394.476013 347.977570,393.551483
                                	C352.242676,388.980804 356.519531,384.421112 360.764587,379.887146
                                	C367.769226,386.649078 368.066772,391.026489 362.503052,396.454468
                                z"/>
    <path fill="#ff1414" opacity="1.000000" stroke="none" d="
                                M369.285797,372.279816
                                	C372.906464,368.186371 376.279907,364.342712 379.766235,360.370453
                                	C383.855377,363.953796 384.824493,367.486572 386.063995,370.826569
                                	C386.573639,372.199829 385.836548,373.421295 384.847961,374.407440
                                	C381.327667,377.918976 377.778107,381.401276 374.271515,384.926361
                                	C372.457428,386.750000 370.608093,387.066956 369.721466,384.356079
                                	C368.472656,380.538025 363.566956,376.772278 369.285797,372.279816
                                z"/>
    <path fill="#ff1414" opacity="1.000000" stroke="none" d="
                                M375.990540,385.990662
                                	C378.191345,384.308014 379.293579,381.781982 382.206177,381.164276
                                	C384.622498,383.760559 385.536133,387.140076 386.859222,390.292419
                                	C387.284790,391.306396 387.052216,392.305847 386.313507,393.057526
                                	C381.832672,397.616882 377.316193,402.141174 372.612762,406.877441
                                	C369.761017,403.606750 368.924377,400.170837 367.430054,397.095764
                                	C366.524994,395.233337 367.659149,393.959778 368.910553,392.768341
                                	C371.190369,390.597595 373.459229,388.415314 375.990540,385.990662
                                z"/>
    <path fill="#ff1414" opacity="1.000000" stroke="none" d="
                                M398.982422,361.040802
                                	C396.118408,362.999847 394.166809,366.088989 390.606812,367.491882
                                	C388.013153,364.965271 387.297516,361.476837 385.791718,358.449127
                                	C385.005646,356.868530 385.913177,355.627228 387.045624,354.512634
                                	C389.283936,352.309692 391.620514,350.183411 393.653809,347.801239
                                	C396.121979,344.909637 398.020691,344.766174 400.827545,347.665985
                                	C405.777252,352.779449 405.966583,352.596161 399.253723,360.681946
                                	C399.076508,360.951355 399.012177,361.009338 398.982422,361.040802
                                z"/>
    <path fill="#ff1414" opacity="1.000000" stroke="none" d="
                                M330.647644,410.815430
                                	C334.418274,406.583710 337.927338,402.606537 341.521149,398.533325
                                	C345.395416,402.060974 346.070923,405.614960 347.626862,408.656097
                                	C348.482300,410.328094 347.331024,411.485107 346.262085,412.573914
                                	C344.627625,414.238770 342.983826,415.894501 341.334076,417.544189
                                	C337.004974,421.873138 331.219360,420.445618 329.076294,414.554962
                                	C328.495361,412.958191 329.537354,412.075012 330.647644,410.815430
                                z"/>
    <path fill="#ff1414" opacity="1.000000" stroke="none" d="
                                M137.473251,163.504471
                                	C136.503448,164.196045 135.819153,164.671310 135.140488,165.154495
                                	C130.225067,168.654114 129.911240,168.583725 126.139336,162.553757
                                	C133.174377,157.454041 140.221649,152.249039 147.382599,147.205475
                                	C149.973755,145.380478 151.309326,147.845642 152.665024,149.383255
                                	C154.573776,151.548126 152.642380,152.595810 151.154449,153.669327
                                	C146.696472,156.885681 142.226578,160.085526 137.473251,163.504471
                                z"/>
    <path fill="#ff1414" opacity="1.000000" stroke="none" d="
                                M118.774261,137.744507
                                	C122.300980,135.217163 125.655617,133.043716 128.731339,130.529129
                                	C131.480499,128.281525 133.212479,129.630188 135.007111,131.671143
                                	C137.419220,134.414322 134.837646,135.412140 133.213974,136.615860
                                	C127.751213,140.665771 122.175682,144.565659 116.765106,148.682999
                                	C114.002838,150.785019 111.938789,150.178055 110.011292,147.679062
                                	C107.781525,144.788162 110.642433,143.979141 112.130951,142.744019
                                	C114.169792,141.052261 116.357109,139.539444 118.774261,137.744507
                                z"/>
    <path fill="#ff1414" opacity="1.000000" stroke="none" d="
                                M157.086548,170.064880
                                	C159.114670,168.571579 160.942230,167.396118 162.592590,166.009750
                                	C166.380554,162.827713 168.811157,164.370178 170.932358,168.360016
                                	C168.078445,171.889984 164.083771,173.997330 160.583649,176.678757
                                	C157.545929,179.005981 154.276413,181.044861 151.347702,183.495987
                                	C148.726349,185.689850 146.927460,184.842361 145.042572,182.634964
                                	C142.787872,179.994476 144.869614,178.870804 146.670914,177.582382
                                	C150.056458,175.160812 153.428101,172.719849 157.086548,170.064880
                                z"/>
    <path fill="#ff1414" opacity="1.000000" stroke="none" d="
                                M407.413635,362.550690
                                	C406.850830,361.319092 406.391083,360.438721 406.029327,359.519775
                                	C405.541321,358.280060 404.993408,356.911865 406.368103,355.932465
                                	C407.719818,354.969482 408.867432,355.836090 409.895111,356.721893
                                	C410.768860,357.475128 411.621460,358.255798 412.446716,359.061920
                                	C416.836792,363.350647 416.558014,364.666870 410.574768,367.829865
                                	C408.833221,366.641907 408.374908,364.652618 407.413635,362.550690
                                z"/>
    <path fill="#ff1414" opacity="1.000000" stroke="none" d="
                M340.745941,420.906555
                	C342.367950,419.413208 343.826996,418.583435 344.965118,420.791931
                	C346.244171,423.273895 347.351318,425.847656 348.456573,428.414520
                	C348.952484,429.566193 348.859283,430.724945 347.622498,431.414154
                	C346.566376,432.002747 345.429352,431.479736 345.032593,430.672119
                	C343.483856,427.519745 336.637054,426.849365 340.745941,420.906555
                z"/>
</svg>
