<svg version="1.1" id="Layer_1" xmlns="http://www.w3.org/2000/svg" xmlns:xlink="http://www.w3.org/1999/xlink" x="0px" y="0px" width="100%" viewBox="0 0 288 288" enable-background="new 0 0 288 288" xml:space="preserve">
    <path fill="#ff1414" opacity="1.000000" stroke="none" d="
    M232.033661,255.297516
    	C226.363358,257.100800 220.861465,256.112885 215.404404,256.277679
    	C213.120804,256.346680 212.319580,254.697235 211.739304,252.843246
    	C210.446106,248.711548 209.024780,244.617126 207.843277,240.454269
    	C206.999283,237.480606 205.385925,236.119339 202.157578,236.037781
    	C166.005615,235.124359 129.844498,235.417862 93.688911,235.057053
    	C90.269356,235.022919 88.527138,236.385773 87.491104,239.511612
    	C86.025528,243.933441 84.258690,248.255386 82.622543,252.620758
    	C82.095955,254.025742 81.692619,255.830261 80.030624,256.019745
    	C74.568062,256.642487 69.061501,256.651215 63.601841,256.008850
    	C61.738937,255.789673 61.804836,253.872513 61.699535,252.377853
    	C61.383663,247.894302 60.976383,243.413681 60.811195,238.924316
    	C60.711857,236.224655 59.575886,234.825089 56.878342,234.973541
    	C46.957420,235.519455 41.700356,230.028198 38.330032,221.396988
    	C35.825848,214.983917 33.990417,208.457886 33.079952,201.680969
    	C32.673183,198.653198 31.235350,197.213974 28.290480,197.037704
    	C26.359226,196.922104 23.666960,197.539444 23.173983,195.102158
    	C22.602528,192.276871 24.887707,190.249664 26.909346,188.557877
    	C28.803589,186.972672 30.747055,187.097977 32.349518,189.902435
    	C32.338711,180.117264 33.884842,171.401474 39.390873,163.766220
    	C43.494175,158.076141 48.718636,154.405350 55.934361,153.856766
    	C60.192608,153.533020 61.569580,151.162079 59.210899,147.479950
    	C55.939919,142.373642 57.047894,136.843094 56.883015,131.451706
    	C56.779305,128.060547 59.555927,127.736404 62.218307,127.684868
    	C64.784576,127.635185 67.879845,127.461708 67.960403,130.854477
    	C68.090759,136.344070 70.110847,142.149841 66.065590,147.231857
    	C65.112907,148.428711 64.994820,150.014053 65.377472,151.546234
    	C65.638100,152.589844 66.217979,153.392563 67.359062,153.499313
    	C68.569458,153.612549 69.453392,152.783020 69.402344,151.778290
    	C69.137596,146.567276 72.516434,145.438293 77.270309,145.683090
    	C74.927689,141.850601 72.813782,138.883362 71.201286,135.664902
    	C65.719780,124.724083 66.986359,114.172722 74.458740,104.771973
    	C82.227028,94.998970 92.770508,92.000908 104.903320,94.406990
    	C108.778099,95.175407 112.097481,97.155174 114.832542,99.904358
    	C117.785240,102.872314 120.585075,103.066902 124.157440,100.896400
    	C128.123489,98.486710 132.412552,96.608650 136.765793,94.394974
    	C133.812485,92.245514 131.070709,90.461288 127.448792,89.530060
    	C121.789574,88.075020 118.975380,82.020821 120.532028,76.472771
    	C120.735519,75.747490 121.315239,74.864716 121.955956,74.574799
    	C123.831833,73.725983 125.137672,72.198891 126.736908,71.035110
    	C134.133514,65.652527 134.157791,65.685883 136.962494,74.329987
    	C138.623596,79.449501 144.647903,81.686150 149.641098,79.007767
    	C151.548111,77.984833 153.524734,78.166794 154.519791,79.913139
    	C157.013794,84.290192 160.220291,83.053047 163.477600,81.394836
    	C169.391922,78.383995 174.668793,74.127274 181.313248,72.528603
    	C182.921173,72.141731 185.115280,72.450195 185.927521,69.832489
    	C183.886200,68.482384 180.064896,69.148682 179.742310,65.859367
    	C179.243149,60.769218 178.835159,55.600540 179.862503,50.524204
    	C180.218048,48.767342 182.030533,48.685947 183.570404,48.683643
    	C189.236359,48.675167 194.902496,48.706032 200.568268,48.673401
    	C203.654999,48.655628 205.199951,50.130272 205.254684,53.206146
    	C205.269501,54.038940 205.344727,54.870655 205.359634,55.703449
    	C205.466980,61.700161 207.384796,68.616806 197.286774,70.218590
    	C205.728760,74.605965 214.599243,77.373573 219.720062,85.346832
    	C224.224167,83.407967 227.052475,80.771309 230.007050,77.369415
    	C234.775040,71.879524 240.509521,69.575150 244.653900,77.651451
    	C247.542328,83.280182 250.513046,88.866768 253.459854,94.465431
    	C254.922485,97.244301 254.346298,99.422623 251.963684,101.518326
    	C248.531662,104.537041 246.263870,109.065826 241.049591,109.677696
    	C239.411041,109.869980 237.601181,110.472328 236.144623,110.013779
    	C230.577896,108.261269 228.964645,111.390152 228.151306,115.895599
    	C227.099304,121.723221 225.273254,127.472542 221.233383,131.733765
    	C216.412750,136.818558 215.584412,142.111771 217.021011,148.653671
    	C218.335220,154.638321 219.301849,155.706177 225.463181,154.810181
    	C228.350235,154.390335 229.311356,153.104080 227.966782,150.394852
    	C227.670731,149.798325 227.302200,149.224197 227.100189,148.596893
    	C226.181015,145.742310 226.807114,143.256836 229.299698,141.540085
    	C231.387573,140.102051 233.743988,139.904312 235.813553,141.563202
    	C238.133438,143.422714 238.695572,145.892166 237.741943,148.746796
    	C235.852768,154.401794 235.896225,154.441635 241.610474,155.166931
    	C252.142532,156.503784 260.460083,164.630005 262.115997,175.382355
    	C262.647308,178.832199 262.925842,182.331024 263.127411,185.818558
    	C263.300873,188.819336 263.188477,191.609100 266.180969,193.752411
    	C268.191650,195.192551 267.914093,197.772369 265.749451,199.250778
    	C262.964630,201.152740 262.302338,203.921280 261.641357,206.899002
    	C260.082642,213.920975 257.829254,220.700912 253.957275,226.843674
    	C250.041855,233.055374 244.804871,237.014282 237.074341,236.266373
    	C232.879349,235.860519 232.092743,237.847488 232.095551,241.564117
    	C232.098923,246.022675 233.917618,250.462753 232.033661,255.297516
    M136.413391,101.051224
    	C132.838028,102.827103 129.303391,104.692268 125.673355,106.348289
    	C123.147057,107.500786 122.281807,108.948143 123.116776,111.821846
    	C124.502251,116.590179 125.894012,121.435326 125.042458,126.527657
    	C124.723221,128.436722 125.708488,129.343185 127.442184,129.589279
    	C138.531250,131.163376 149.623383,132.715988 161.619934,134.403000
    	C155.684814,125.903687 152.785660,117.389008 152.865463,107.952965
    	C152.880600,106.163940 151.923584,105.353386 150.389587,104.228821
    	C146.288315,101.222183 141.380280,102.314865 136.413391,101.051224
    M148.538849,154.607132
    	C150.368668,154.606598 152.198502,154.603851 154.028320,154.605865
    	C164.776459,154.617706 164.776199,154.618088 165.080994,144.005402
    	C165.085739,143.840225 165.123215,143.675644 165.149933,143.511490
    	C165.456314,141.628494 164.511978,140.697556 162.759552,140.432327
    	C150.278900,138.543182 137.795547,136.671799 125.316635,134.771240
    	C123.377060,134.475845 121.804604,135.042068 121.624397,137.060913
    	C121.424843,139.296432 123.270195,139.680176 125.031471,139.715454
    	C127.525314,139.765381 130.024933,139.798203 132.515259,139.686462
    	C135.858215,139.536484 137.468796,140.917953 137.331741,144.375122
    	C137.207535,147.507874 137.305496,150.649399 137.305496,153.983063
    	C140.627151,155.237534 144.141785,154.330872 148.538849,154.607132
    M182.957825,86.026482
    	C181.585220,84.235123 183.132095,82.049316 182.271255,79.614365
    	C176.830124,81.418282 172.071625,83.543671 168.305267,88.839767
    	C172.055222,89.337250 172.509537,94.869919 176.754837,92.764595
    	C179.375763,91.464844 183.492691,91.205864 182.957825,86.026482
    M208.166611,93.307053
    	C210.275528,92.283203 210.709045,89.590446 213.605713,88.841278
    	C210.074570,84.537773 206.389374,81.812256 201.124817,80.500488
    	C201.124817,83.955414 201.124817,87.018784 201.124817,90.229355
    	C203.101761,91.205963 205.301529,92.292664 208.166611,93.307053
    M165.190414,119.914543
    	C163.537048,117.415192 163.103775,114.540451 163.085464,111.437492
    	C159.011505,113.640305 159.944366,119.018456 165.348282,125.832916
    	C165.348282,123.828163 165.348282,122.201805 165.190414,119.914543
    M111.507729,153.406174
    	C106.773987,153.624298 102.040237,153.842422 97.306496,154.060562
    	C97.314056,154.211334 97.321625,154.362106 97.329185,154.512878
    	C106.048416,154.512878 114.767647,154.512878 124.844620,154.512878
    	C119.866135,153.316498 116.157722,153.334671 111.507729,153.406174
    z"/>
</svg>
