<svg version="1.1" id="Layer_1" xmlns="http://www.w3.org/2000/svg" xmlns:xlink="http://www.w3.org/1999/xlink" x="0px" y="0px" width="100%" viewBox="0 0 800 800" enable-background="new 0 0 800 800" xml:space="preserve">
    <path fill="#ff1414" opacity="1.000000" stroke="none" d="
                                                        M275.582397,461.999878
                                                        	C275.578491,433.842316 275.632812,406.184601 275.556122,378.527252
                                                        	C275.480835,351.371338 275.128784,324.215637 275.153961,297.060059
                                                        	C275.199249,248.251892 275.779022,199.441208 275.396942,150.637360
                                                        	C275.271729,134.646835 288.726013,120.239906 305.851013,120.564705
                                                        	C329.171021,121.006989 352.505798,120.662331 375.834229,120.678902
                                                        	C384.189880,120.684830 385.850739,122.098831 387.429474,130.324326
                                                        	C388.362488,135.185577 392.570679,138.766953 397.230988,138.665924
                                                        	C401.733765,138.568314 406.191040,135.124588 406.469543,130.409439
                                                        	C406.896271,123.184929 411.570099,120.521164 418.154572,120.581093
                                                        	C443.647125,120.813080 469.156433,121.175125 494.632843,120.492729
                                                        	C511.121460,120.051079 527.126648,130.899277 527.061096,152.421509
                                                        	C527.020996,165.585251 527.066162,178.749237 527.066406,191.913116
                                                        	C527.067627,261.398254 527.066650,330.883362 527.066711,400.368500
                                                        	C527.066833,483.014465 527.076660,565.660461 527.060059,648.306396
                                                        	C527.056580,665.724915 518.898743,677.092102 503.829376,680.650513
                                                        	C501.592224,681.178772 499.215942,681.301392 496.903900,681.302551
                                                        	C432.917358,681.336060 368.930786,681.359131 304.944305,681.309570
                                                        	C287.995087,681.296387 275.632202,668.933716 275.616577,651.958984
                                                        	C275.558441,588.805969 275.587158,525.652893 275.582397,461.999878
                                                        M509.731659,627.500000
                                                        	C509.729828,570.518127 509.726562,513.536316 509.726471,456.554443
                                                        	C509.726318,355.252777 509.733246,253.951126 509.721405,152.649475
                                                        	C509.720184,142.094147 505.040619,137.461960 494.446350,137.498672
                                                        	C490.618927,137.511932 486.791016,137.886429 482.965424,137.853516
                                                        	C464.976044,137.698792 446.983002,138.288666 428.994812,137.526001
                                                        	C425.757751,137.388748 422.641754,137.271149 420.665588,141.262299
                                                        	C415.864044,150.959671 407.409729,155.881989 396.838409,155.831970
                                                        	C386.240356,155.781815 378.042389,150.641022 373.221436,140.924469
                                                        	C372.002472,138.467590 370.454895,137.748932 367.742462,137.768768
                                                        	C348.083038,137.912552 328.422211,137.854004 308.761810,137.878342
                                                        	C296.100433,137.894028 292.339233,141.640579 292.338959,154.241089
                                                        	C292.335480,318.689667 292.335663,483.138214 292.338898,647.586792
                                                        	C292.339142,660.426819 296.533234,664.613281 309.437012,664.616028
                                                        	C370.251343,664.628906 431.065674,664.628845 491.880005,664.631287
                                                        	C493.546051,664.631348 495.217712,664.691162 496.877197,664.580139
                                                        	C505.007599,664.036133 509.619904,659.194214 509.707611,650.992798
                                                        	C509.787781,643.495972 509.728668,635.997681 509.731659,627.500000
                                                        z"/>
    <path fill="#ff1414" opacity="1.000000" stroke="none" d="
                                                        M352.512665,424.669220
                                                        	C369.557312,391.134766 410.317719,383.142487 437.704346,408.343231
                                                        	C454.000244,423.338440 458.604797,442.704407 451.964966,463.653076
                                                        	C445.365692,484.473663 430.377960,496.949371 408.660675,500.243317
                                                        	C378.036865,504.888123 352.759888,483.318604 348.249695,456.221283
                                                        	C346.464600,445.496429 347.679718,434.980560 352.512665,424.669220
                                                        M420.569946,440.063782
                                                        	C418.400024,442.543060 415.592499,444.465973 413.984100,447.387207
                                                        	C417.356689,452.193054 428.849670,463.286743 432.107941,464.921417
                                                        	C439.490570,458.182983 439.552734,435.246033 430.288574,428.786865
                                                        	C427.345337,432.229065 424.208130,435.898041 420.569946,440.063782
                                                        M384.268799,418.317688
                                                        	C389.732544,423.810669 395.196289,429.303680 401.103455,435.242462
                                                        	C406.687531,429.586456 411.829285,424.449951 416.882812,419.228088
                                                        	C419.205475,416.828064 418.163025,414.986786 415.496674,413.880402
                                                        	C405.657593,409.797760 395.807465,409.874664 386.042969,414.140839
                                                        	C384.601990,414.770447 382.726593,415.450928 384.268799,418.317688
                                                        M375.422638,460.902191
                                                        	C379.645508,456.332153 384.616547,452.443054 388.288788,447.505157
                                                        	C383.928192,441.605896 373.257446,431.426178 369.895721,429.838318
                                                        	C362.364624,437.795624 363.046692,459.276245 370.411652,465.191620
                                                        	C372.310089,464.410645 373.499634,462.758759 375.422638,460.902191
                                                        M394.095276,466.594757
                                                        	C390.314056,470.426636 386.532806,474.258484 382.755341,478.086517
                                                        	C390.609253,485.385162 412.919189,485.633392 419.766235,476.966370
                                                        	C415.717224,473.318939 411.414856,469.688751 407.396515,465.767517
                                                        	C400.899078,459.427124 400.977905,459.346344 394.095276,466.594757
                                                        z"/>
    <path fill="#ff1414" opacity="1.000000" stroke="none" d="
                                                        M368.525635,296.149902
                                                        	C363.147522,307.497864 352.847473,313.670563 342.561890,311.990112
                                                        	C330.736969,310.058197 323.036926,302.046204 321.438782,290.011261
                                                        	C319.856903,278.098785 328.771790,266.078247 340.929291,263.730896
                                                        	C353.381165,261.326691 366.152679,269.206421 369.180817,281.084503
                                                        	C370.448547,286.057251 370.473480,290.938538 368.525635,296.149902
                                                        M340.191162,292.337189
                                                        	C342.659119,294.885620 345.532257,295.550781 348.747589,293.981628
                                                        	C352.213806,292.289948 353.683105,288.143188 352.150238,284.710327
                                                        	C350.537811,281.099304 346.144562,279.517029 342.554626,281.254364
                                                        	C338.733795,283.103455 337.691406,286.969299 340.191162,292.337189
                                                        z"/>
    <path fill="#ff1414" opacity="1.000000" stroke="none" d="
                                                        M486.693787,461.021667
                                                        	C493.412201,465.162598 496.125732,471.124298 496.251434,478.403534
                                                        	C496.343292,483.722717 496.406494,489.051270 496.202118,494.364868
                                                        	C495.784515,505.223328 486.979004,513.514832 476.353180,513.261292
                                                        	C466.020996,513.014832 457.843262,504.492096 457.688354,493.734314
                                                        	C457.616547,488.746704 457.644104,483.757202 457.667389,478.768799
                                                        	C457.742310,462.722656 471.861725,453.904327 486.693787,461.021667
                                                        M478.919312,485.529694
                                                        	C478.908997,483.383118 478.954437,481.234283 478.867493,479.090820
                                                        	C478.815247,477.803711 478.879913,476.195465 477.147736,475.965454
                                                        	C475.452118,475.740204 474.709686,477.244629 474.670746,478.490997
                                                        	C474.516510,483.430634 474.538605,488.380005 474.668457,493.321198
                                                        	C474.698853,494.479095 475.574432,495.526154 476.984344,495.421173
                                                        	C478.467957,495.310669 478.773407,494.099060 478.825043,492.909485
                                                        	C478.918060,490.766602 478.898407,488.618866 478.919312,485.529694
                                                        z"/>
    <path fill="#ff1414" opacity="1.000000" stroke="none" d="
                                                        M356.228149,248.547516
                                                        	C343.029205,254.671204 330.924835,248.196503 325.700592,240.685226
                                                        	C319.438141,231.681259 319.837341,219.422455 326.964355,211.050766
                                                        	C333.783569,203.040619 342.468933,200.375244 352.537537,203.295029
                                                        	C362.674316,206.234619 368.543060,213.428299 369.867920,223.697128
                                                        	C371.116486,233.374908 367.237915,241.228012 359.142609,246.846619
                                                        	C358.326233,247.413239 357.430969,247.866226 356.228149,248.547516
                                                        M347.013153,233.587494
                                                        	C352.528412,231.035980 354.370361,226.763031 351.583954,222.695847
                                                        	C349.597931,219.796967 346.774384,218.569611 343.366852,219.770844
                                                        	C339.793640,221.030502 337.975372,223.900360 338.542023,227.536636
                                                        	C339.179688,231.628754 341.910919,233.857590 347.013153,233.587494
                                                        z"/>
    <path fill="#ff1414" opacity="1.000000" stroke="none" d="
                                                        M432.004944,226.969421
                                                        	C434.181976,211.863129 440.951660,204.333282 453.653778,202.459641
                                                        	C466.421661,200.576294 478.047211,209.550049 480.634827,223.286301
                                                        	C482.825104,234.913300 474.070801,247.412704 462.292633,250.348755
                                                        	C449.406464,253.561035 433.378052,245.029724 432.004944,226.969421
                                                        M455.747833,219.385880
                                                        	C451.284790,220.258347 449.018158,223.026474 449.450867,227.501511
                                                        	C449.792908,231.039139 452.072754,233.178360 455.655334,233.635956
                                                        	C459.531433,234.131058 463.008759,231.480087 463.605896,227.706116
                                                        	C464.287628,223.397369 461.856049,220.541321 455.747833,219.385880
                                                        z"/>
    <path fill="#ff1414" opacity="1.000000" stroke="none" d="
                                                        M335.078430,326.759155
                                                        	C347.179169,322.204742 358.156403,324.920105 365.071136,333.933807
                                                        	C371.603210,342.448700 371.802460,354.563751 365.251831,363.194275
                                                        	C359.341003,370.981934 351.328613,374.613770 341.634369,372.899170
                                                        	C331.352631,371.080627 324.540039,364.714325 322.048492,354.579803
                                                        	C319.670013,344.904938 322.524292,336.513092 330.184174,329.968262
                                                        	C331.561432,328.791504 333.204254,327.925537 335.078430,326.759155
                                                        M345.527954,355.843262
                                                        	C351.407837,354.744720 354.325470,350.327606 352.084442,345.734680
                                                        	C350.655151,342.805328 348.212372,341.008514 344.889587,341.565521
                                                        	C341.303192,342.166687 338.752747,344.452942 338.518585,348.202942
                                                        	C338.255615,352.414398 340.558350,355.006653 345.527954,355.843262
                                                        z"/>
    <path fill="#ff1414" opacity="1.000000" stroke="none" d="
                                                        M480.341064,292.960571
                                                        	C476.721619,305.137573 467.405304,312.461151 456.308929,312.228302
                                                        	C445.173279,311.994690 435.373505,304.127289 432.782959,293.341431
                                                        	C429.705017,280.526306 437.721863,267.188324 450.423553,263.991913
                                                        	C463.353699,260.738068 476.886810,268.786102 480.175842,281.729858
                                                        	C481.083771,285.302979 481.558441,288.918274 480.341064,292.960571
                                                        M460.601929,281.843140
                                                        	C458.530731,280.597229 456.391571,279.862915 453.995239,280.921478
                                                        	C450.948853,282.267151 449.309265,284.588593 449.376099,287.927307
                                                        	C449.444580,291.350128 451.415131,293.531403 454.535522,294.481506
                                                        	C457.697418,295.444305 460.524536,294.636505 462.353363,291.709717
                                                        	C464.472198,288.318878 464.236908,285.107208 460.601929,281.843140
                                                        z"/>
    <path fill="#ff1414" opacity="1.000000" stroke="none" d="
                                                        M407.210938,325.204163
                                                        	C419.865997,329.492249 426.162384,338.810486 425.299225,351.515137
                                                        	C424.604279,361.743561 416.422150,370.666687 405.256744,372.790253
                                                        	C395.966003,374.557251 388.095032,371.432251 382.232391,364.144592
                                                        	C376.122101,356.549133 374.788055,347.943237 378.871552,338.924225
                                                        	C382.829895,330.181702 389.631683,325.184845 399.367004,324.682312
                                                        	C401.833923,324.554993 404.326508,324.924194 407.210938,325.204163
                                                        M396.123932,343.755646
                                                        	C392.686432,349.107971 394.093628,354.537445 399.272461,355.633118
                                                        	C402.692932,356.356781 405.557129,355.364227 407.399109,352.249634
                                                        	C409.282166,349.065582 408.586151,346.151794 406.052155,343.680939
                                                        	C403.105652,340.807892 399.921356,340.681793 396.123932,343.755646
                                                        z"/>
    <path fill="#ff1414" opacity="1.000000" stroke="none" d="
                                                        M344.217499,497.452881
                                                        	C340.797058,508.551178 332.450317,514.478394 322.674133,513.154907
                                                        	C312.935425,511.836487 305.861694,503.095001 305.923401,492.108032
                                                        	C305.957855,485.968201 305.331665,479.810089 306.572205,473.684387
                                                        	C308.595215,463.694885 316.864624,457.817535 327.987061,458.672577
                                                        	C336.964935,459.362793 344.216980,467.440094 344.323944,477.031891
                                                        	C344.398163,483.691254 344.293365,490.352600 344.217499,497.452881
                                                        M323.192841,480.933929
                                                        	C323.205597,484.757782 323.184082,488.582184 323.249542,492.405151
                                                        	C323.272766,493.759308 323.495728,495.295227 325.218872,495.384186
                                                        	C327.225769,495.487793 327.598938,493.906158 327.616638,492.311737
                                                        	C327.660950,488.321655 327.662872,484.330872 327.649414,480.340485
                                                        	C327.643219,478.500763 327.744568,476.105103 325.445068,475.952820
                                                        	C322.715515,475.772034 323.473999,478.399719 323.192841,480.933929
                                                        z"/>
    <path fill="#ff1414" opacity="1.000000" stroke="none" d="
                                                        M397.690063,263.625977
                                                        	C411.822235,262.385529 423.745392,271.536346 425.238190,284.426910
                                                        	C426.858643,298.419617 417.509827,310.138947 403.175232,312.084351
                                                        	C391.143494,313.717224 378.962219,304.024750 376.866913,291.151154
                                                        	C374.792542,278.406067 383.750854,266.342163 397.690063,263.625977
                                                        M396.360962,293.151794
                                                        	C401.590485,295.871429 405.662262,294.920837 407.569305,290.535095
                                                        	C409.258514,286.650360 407.370575,282.352997 403.311646,280.861023
                                                        	C400.264618,279.740967 397.696075,280.689819 395.763519,283.045563
                                                        	C393.216949,286.149841 393.525513,289.427399 396.360962,293.151794
                                                        z"/>
    <path fill="#ff1414" opacity="1.000000" stroke="none" d="
                                                        M480.764282,351.482544
                                                        	C478.327454,364.832306 468.588348,373.364746 456.247406,373.283875
                                                        	C444.391083,373.206238 434.504547,364.500458 432.483307,352.358032
                                                        	C430.390656,339.786926 439.063873,327.315704 451.605225,324.862671
                                                        	C464.441833,322.351837 477.525146,330.672821 480.163879,343.168549
                                                        	C480.706818,345.739746 481.490784,348.366882 480.764282,351.482544
                                                        M457.220673,355.796875
                                                        	C460.834778,355.100647 463.332825,353.233459 463.655731,349.327484
                                                        	C463.967255,345.559479 461.122681,342.119720 457.378540,341.550690
                                                        	C453.787140,341.004852 450.039581,343.804199 449.411438,347.501984
                                                        	C448.697571,351.704376 451.275970,354.759521 457.220673,355.796875
                                                        z"/>
    <path fill="#ff1414" opacity="1.000000" stroke="none" d="
                                                        M380.784607,240.006439
                                                        	C369.966064,222.821335 382.597473,204.065460 397.718292,202.479950
                                                        	C410.860199,201.101944 422.616699,209.284271 425.111298,222.312469
                                                        	C427.452362,234.538559 419.513397,247.036133 407.184540,250.130051
                                                        	C396.290894,252.863800 387.653503,249.098206 380.784607,240.006439
                                                        M405.586700,232.249466
                                                        	C408.726349,229.141464 409.550415,225.730057 406.686951,222.032288
                                                        	C404.604706,219.343338 401.807281,218.657700 398.650726,219.870682
                                                        	C394.859467,221.327576 393.059113,225.561615 394.508362,229.366943
                                                        	C396.005890,233.298859 399.757080,234.482788 405.586700,232.249466
                                                        z"/>
    <path fill="#ff1414" opacity="1.000000" stroke="none" d="
                                                        M385.653320,618.888428
                                                        	C380.212738,618.889404 375.225433,619.038025 370.251770,618.841980
                                                        	C364.496368,618.615051 360.764374,614.954407 360.830078,609.986511
                                                        	C360.895416,605.044617 364.727386,601.759399 370.642059,601.694702
                                                        	C375.955017,601.636597 381.269501,601.646606 386.582672,601.693726
                                                        	C393.208801,601.752502 396.950928,604.579224 397.248962,609.656128
                                                        	C397.542511,614.657166 393.948517,618.074707 387.604858,618.814148
                                                        	C387.111450,618.871643 386.610229,618.862061 385.653320,618.888428
                                                        z"/>
    <path fill="#ff1414" opacity="1.000000" stroke="none" d="
                                                        M417.268433,618.905823
                                                        	C415.319153,618.792786 413.806885,618.826477 412.354523,618.547913
                                                        	C407.582520,617.632690 404.533478,613.860779 404.890533,609.478027
                                                        	C405.238434,605.207458 408.513977,601.917969 413.213043,601.769653
                                                        	C419.841339,601.560364 426.488464,601.543945 433.114197,601.795837
                                                        	C437.799835,601.973999 441.016663,605.365356 441.267242,609.645081
                                                        	C441.524109,614.032227 438.395691,618.061340 433.633850,618.501831
                                                        	C428.365997,618.989075 423.035858,618.802673 417.268433,618.905823
                                                        z"/>
    <path fill="#ff1414" opacity="1.000000" stroke="none" d="
                                                        M317.290588,534.736572
                                                        	C319.154144,530.268738 322.487061,528.861023 326.635864,528.845398
                                                        	C332.291656,528.824097 337.950623,528.708435 343.602417,528.855713
                                                        	C349.319824,529.004639 353.251465,532.666870 353.263794,537.521790
                                                        	C353.276215,542.392944 349.401276,545.969421 343.559906,546.123535
                                                        	C337.742004,546.276978 331.906677,546.356873 326.097137,546.083191
                                                        	C319.490234,545.771912 316.490845,541.882202 317.290588,534.736572
                                                        z"/>
    <path fill="#ff1414" opacity="1.000000" stroke="none" d="
                                                        M367.827393,529.153809
                                                        	C374.890747,528.974854 381.541107,528.749023 388.184113,528.884033
                                                        	C393.675140,528.995605 397.241608,532.566895 397.279297,537.451233
                                                        	C397.314667,542.035767 393.890198,545.753967 388.650238,546.024597
                                                        	C382.514160,546.341431 376.346832,546.256958 370.199799,546.093384
                                                        	C365.205597,545.960510 361.385010,542.892334 360.959747,538.629883
                                                        	C360.483612,533.857422 362.854004,530.729065 367.827393,529.153809
                                                        z"/>
    <path fill="#ff1414" opacity="1.000000" stroke="none" d="
                                                        M437.281372,544.605103
                                                        	C428.454773,547.301208 419.820251,546.488159 411.300995,545.438171
                                                        	C407.067200,544.916382 404.726105,541.322998 404.955994,537.081665
                                                        	C405.194763,532.677124 407.746429,529.346313 412.398834,529.113708
                                                        	C419.525848,528.757385 426.692139,528.756592 433.821838,529.065308
                                                        	C437.408661,529.220581 439.946960,531.699890 440.961304,535.178467
                                                        	C442.056488,538.934265 440.687286,542.019104 437.281372,544.605103
                                                        z"/>
    <path fill="#ff1414" opacity="1.000000" stroke="none" d="
                                                        M484.483521,533.967651
                                                        	C486.111145,541.455017 483.046722,545.802917 475.965271,546.098206
                                                        	C469.990509,546.347290 463.990723,546.305847 458.013275,546.086914
                                                        	C452.803375,545.895996 448.789673,541.849182 448.875549,537.370422
                                                        	C448.964203,532.746704 452.824524,529.049866 458.217163,528.879150
                                                        	C464.196381,528.689758 470.186462,528.824524 476.171692,528.849731
                                                        	C479.783600,528.864990 482.605499,530.292358 484.483521,533.967651
                                                        z"/>
    <path fill="#ff1414" opacity="1.000000" stroke="none" d="
                                                        M340.735870,618.916260
                                                        	C335.457611,618.873474 330.632874,619.044312 325.840668,618.725830
                                                        	C320.248505,618.354126 316.768402,614.780273 316.812469,610.026733
                                                        	C316.857819,605.131714 320.713501,601.796265 326.624298,601.705322
                                                        	C331.932617,601.623718 337.243317,601.660278 342.552643,601.695190
                                                        	C349.253723,601.739197 352.890808,604.452209 353.237030,609.592651
                                                        	C353.582794,614.726501 349.702393,618.312012 343.193634,618.857727
                                                        	C342.533447,618.913086 341.867218,618.896606 340.735870,618.916260
                                                        z"/>
    <path fill="#ff1414" opacity="1.000000" stroke="none" d="
                                                        M364.293701,567.083313
                                                        	C373.712769,563.762756 382.997711,564.542786 392.134399,566.194031
                                                        	C395.912933,566.876953 397.468994,570.660950 397.173370,574.439575
                                                        	C396.838379,578.721252 394.284851,581.855469 389.973022,582.095276
                                                        	C382.683868,582.500610 375.328583,582.594299 368.052216,582.086731
                                                        	C361.645355,581.639709 357.716309,572.812012 364.293701,567.083313
                                                        z"/>
    <path fill="#ff1414" opacity="1.000000" stroke="none" d="
                                                        M471.893250,582.339172
                                                        	C466.929016,582.335815 462.445862,582.440308 457.970398,582.299622
                                                        	C452.698883,582.134033 449.199371,578.914612 448.899597,574.229126
                                                        	C448.616150,569.798950 451.957245,566.101807 457.228363,565.483826
                                                        	C464.169220,564.670105 471.146301,564.790161 478.076355,565.671753
                                                        	C482.675873,566.256775 485.247040,569.291382 485.288605,573.706970
                                                        	C485.330292,578.134399 482.335175,581.654663 477.846802,582.223938
                                                        	C476.047852,582.452148 474.202148,582.311340 471.893250,582.339172
                                                        z"/>
    <path fill="#ff1414" opacity="1.000000" stroke="none" d="
                                                        M459.502563,618.851929
                                                        	C457.101013,618.529907 455.065796,618.603455 453.288300,617.512329
                                                        	C449.978760,615.480591 448.370178,612.510010 449.139648,608.709839
                                                        	C449.984619,604.536987 452.652466,601.867493 457.055206,601.758545
                                                        	C463.686310,601.594360 470.331390,601.545532 476.957916,601.789856
                                                        	C481.903107,601.972290 485.118530,605.412598 485.284149,609.990845
                                                        	C485.443298,614.390076 482.338013,618.127319 477.345215,618.527344
                                                        	C471.574371,618.989746 465.750488,618.790039 459.502563,618.851929
                                                        z"/>
    <path fill="#ff1414" opacity="1.000000" stroke="none" d="
                                                        M331.691589,565.129395
                                                        	C336.596527,565.254822 341.100861,565.125671 345.538269,565.610107
                                                        	C350.489990,566.150757 353.540680,569.892822 353.262054,574.312927
                                                        	C352.979797,578.790771 349.564117,582.139404 344.626801,582.270386
                                                        	C338.155396,582.442078 331.670593,582.448730 325.200928,582.237976
                                                        	C320.367432,582.080566 316.915375,578.487915 316.803192,574.059692
                                                        	C316.690033,569.593445 319.872253,566.135376 324.806335,565.532471
                                                        	C326.941925,565.271484 329.108795,565.266724 331.691589,565.129395
                                                        z"/>
    <path fill="#ff1414" opacity="1.000000" stroke="none" d="
                            M405.075714,572.371460
                            	C406.433167,567.502930 409.536865,565.752930 414.046051,565.554443
                            	C420.338074,565.277405 426.624847,564.663818 432.907562,565.461792
                            	C438.306061,566.147400 441.451874,569.499512 441.281891,574.127197
                            	C441.103760,578.976929 437.514801,582.194275 431.873566,582.302002
                            	C426.072113,582.412842 420.265228,582.416321 414.463806,582.305054
                            	C408.099243,582.183044 405.552734,579.528564 405.075714,572.371460
                            z"/>
</svg>
