<svg version="1.1" id="Layer_1" xmlns="http://www.w3.org/2000/svg" xmlns:xlink="http://www.w3.org/1999/xlink" x="0px" y="0px" width="100%" viewBox="0 0 608 544" enable-background="new 0 0 608 544" xml:space="preserve">
    <path fill="#ff1414" opacity="1.000000" stroke="none" d="
        M468.749176,349.025360
        	C494.090271,361.391205 508.120453,381.499481 508.910706,409.148193
        	C510.037323,448.565948 478.959564,477.117126 443.934723,478.400238
        	C405.890411,479.793945 373.256073,449.491608 373.771484,409.197418
        	C373.801056,406.883667 374.397339,404.581329 374.505890,402.263153
        	C374.593353,400.395874 375.514374,398.232147 373.196594,396.779724
        	C370.681519,397.104767 369.533661,399.453735 367.640198,400.702301
        	C353.087036,410.298920 333.750092,403.026398 328.341431,385.636169
        	C327.389496,382.575409 326.176086,381.459229 322.929077,381.342072
        	C310.821320,380.905121 300.638947,373.189209 296.902679,361.464172
        	C295.720856,357.755493 294.349365,356.172974 290.120544,356.154419
        	C275.800354,356.091522 264.212006,345.844757 261.877075,331.357880
        	C261.375397,328.245361 260.269806,327.253906 257.320770,326.794922
        	C245.075150,324.888977 236.322098,318.352570 232.784119,306.231537
        	C229.341766,294.438141 232.598465,284.235168 241.598480,275.871674
        	C242.330215,275.191681 242.941910,274.368103 243.725128,273.760437
        	C246.790833,271.381958 247.050507,269.069244 243.783432,266.630585
        	C242.856171,265.938416 242.097519,265.021851 241.252930,264.217224
        	C235.473221,258.711029 231.011139,250.677887 223.851959,248.095474
        	C216.913193,245.592560 208.400284,247.424683 200.578583,247.405258
        	C188.912277,247.376282 177.245499,247.338379 165.579620,247.412231
        	C159.055557,247.453537 153.552979,245.223373 148.956741,240.628769
        	C136.817398,228.493698 124.652679,216.383972 112.526909,204.235382
        	C106.872108,198.569885 104.919960,191.688553 105.252411,183.741913
        	C105.746704,171.926559 105.590523,160.085327 105.973785,148.263626
        	C106.326340,137.389221 110.325981,132.181976 119.197647,130.413406
        	C124.750435,129.306488 129.309525,131.272186 133.213196,135.140198
        	C143.510406,145.343430 153.850708,155.503494 164.100388,165.754196
        	C169.707001,171.361359 173.818741,171.542435 179.444580,165.995712
        	C185.377869,160.145844 191.277145,154.259232 197.087524,148.287720
        	C201.875641,143.366791 201.962067,139.343246 197.117157,134.413361
        	C187.190796,124.312912 177.189819,114.281418 167.033142,104.413391
        	C161.501526,99.038994 158.953506,93.006477 161.702744,85.526253
        	C164.176437,78.795738 169.709167,75.806091 178.540482,75.645294
        	C190.864395,75.420883 203.185791,75.050255 215.507462,74.712814
        	C223.631683,74.490318 230.336151,77.370857 236.048737,83.216949
        	C247.113098,94.539879 258.311584,105.735603 269.626678,116.808083
        	C275.604736,122.657944 278.305267,129.569275 278.244843,137.851242
        	C278.132996,153.183380 278.243805,168.517014 278.190430,183.849777
        	C278.179077,187.115494 277.862488,190.380142 277.695343,193.481445
        	C279.341278,194.386002 280.261993,193.427780 281.147095,192.783844
        	C291.300415,185.396942 302.853851,181.805084 315.185852,181.097076
        	C340.214172,179.660172 365.184509,179.825638 389.358185,187.812469
        	C417.056702,196.963898 439.261902,213.166458 452.312225,239.821609
        	C465.120270,265.981873 459.436523,291.024994 445.728546,315.064117
        	C440.996155,323.363037 434.741791,330.521576 427.865417,337.147003
        	C426.658234,338.310150 424.500275,339.442291 425.808533,341.658020
        	C426.949768,343.590820 428.551056,344.530579 431.206696,344.194672
        	C443.969452,342.580353 456.457947,343.690002 468.749176,349.025360
        M376.114868,292.385529
        	C387.301514,303.572876 398.531921,314.717072 409.641907,325.980011
        	C412.209259,328.582733 413.977264,329.126587 416.924988,326.142883
        	C424.953125,318.016846 432.068878,309.289307 436.799438,298.839081
        	C447.362030,275.505432 446.516815,253.229721 429.789276,232.858810
        	C417.751221,218.198837 402.462646,208.173645 384.339874,202.494827
        	C361.360474,195.294159 337.800140,195.149612 314.133362,196.924210
        	C302.044800,197.830627 291.873322,202.827316 283.555145,211.939438
        	C276.488800,219.680206 268.751709,226.805695 261.388123,234.279037
        	C254.844879,240.919800 254.766479,247.762085 261.331940,254.412537
        	C272.563263,265.789246 283.895386,277.067505 295.269073,288.302155
        	C301.308929,294.268219 308.998871,294.502838 314.308563,289.108826
        	C319.546570,283.787689 319.153137,275.921143 313.281281,270.013184
        	C308.468475,265.170807 303.535675,260.447144 298.750977,255.577591
        	C294.581726,251.334396 293.810699,247.559143 296.499207,244.078232
        	C299.548981,240.129593 303.365601,240.295441 307.692993,242.078644
        	C327.697144,250.321899 347.766327,258.407288 367.807251,266.561462
        	C372.277527,268.380341 376.819519,270.057770 381.161530,272.147339
        	C385.551208,274.259918 387.023438,278.594971 385.150604,282.607819
        	C383.463409,286.222900 379.267700,287.714874 374.949707,286.180634
        	C372.793213,285.414398 370.671021,284.551544 368.533325,283.732391
        	C368.242554,284.059326 367.951752,284.386261 367.660980,284.713196
        	C370.311584,287.104980 372.962189,289.496735 376.114868,292.385529
        M134.317276,158.181747
        	C130.394165,154.283707 126.471054,150.385666 122.547943,146.487625
        	C122.032349,146.707382 121.516754,146.927139 121.001160,147.146881
        	C121.001160,159.278656 121.220787,171.416458 120.887619,183.539062
        	C120.763138,188.068192 121.806267,191.518158 125.038116,194.710800
        	C135.942017,205.482407 146.723053,216.380096 157.440414,227.337784
        	C160.553986,230.521179 163.987228,232.002258 168.515320,231.946106
        	C183.844482,231.755966 199.177322,231.867325 214.508759,231.852676
        	C216.840347,231.850449 219.201813,231.930725 221.376968,230.878860
        	C226.010269,228.638290 229.655472,230.183395 233.047607,233.585876
        	C235.328217,235.873444 237.015945,238.940094 240.974197,240.244736
        	C243.940170,224.321091 258.481598,217.338425 267.088684,205.690994
        	C265.475372,203.909241 264.042908,202.298141 262.578522,200.716583
        	C260.313934,198.270859 259.617645,195.341156 260.915894,192.383560
        	C262.733887,188.241943 262.679718,183.975021 262.670807,179.641129
        	C262.642426,165.809540 262.582703,151.977295 262.696991,138.146622
        	C262.730957,134.036697 261.427399,130.797302 258.503052,127.899597
        	C247.258621,116.757790 236.136887,105.492249 224.955505,94.286697
        	C222.671951,91.998184 220.169571,90.202141 216.669006,90.315308
        	C204.183273,90.718979 191.695114,91.047256 179.209213,91.445824
        	C178.828842,91.457962 178.463150,91.930962 177.792191,92.395897
        	C179.339615,94.125137 180.698624,95.787994 182.205429,97.303955
        	C191.015152,106.167244 199.879822,114.975929 208.686722,123.842026
        	C218.525772,133.747223 219.057602,147.623795 209.577438,157.933014
        	C202.815430,165.286346 195.709183,172.352707 188.405502,179.171066
        	C178.762268,188.173492 165.055161,188.073288 155.447159,179.052261
        	C148.404114,172.439514 141.683350,165.483459 134.317276,158.181747
        M480.510895,444.996948
        	C496.908356,426.303589 497.964355,398.698395 482.599976,379.199585
        	C469.557312,362.647186 452.142365,356.554657 431.583099,360.074371
        	C425.880341,361.050690 421.551239,360.497650 417.780029,355.984650
        	C416.134827,354.015869 413.946777,352.500702 411.488892,350.321747
        	C409.622620,358.244171 405.435059,363.895660 400.030731,368.818970
        	C394.642548,373.727600 389.435303,378.834900 384.198792,383.807556
        	C385.201630,385.330963 385.449402,386.005798 385.929565,386.390717
        	C390.927826,390.397552 391.943665,395.231262 390.441162,401.485352
        	C387.464233,413.876892 390.082764,425.689240 396.270905,436.615356
        	C413.889557,467.723724 456.797150,471.966034 480.510895,444.996948
        M345.535065,350.035492
        	C352.595428,342.961182 359.713074,335.942841 366.698700,328.795471
        	C372.696350,322.658997 372.936554,315.871948 367.564972,310.224335
        	C362.047272,304.423096 354.591064,304.149750 348.546356,310.045441
        	C337.338715,320.976837 326.277954,332.063354 315.339355,343.264282
        	C309.415985,349.329681 309.614105,356.633209 315.375702,362.295319
        	C320.675995,367.504089 327.997070,367.214172 334.034332,361.441620
        	C337.765747,357.873810 341.367065,354.169922 345.535065,350.035492
        M330.399567,305.899139
        	C334.284027,302.014679 338.209778,298.170380 342.041382,294.234467
        	C345.903870,290.266754 346.873352,285.482239 344.938477,280.408936
        	C342.942108,275.174408 338.860046,272.406494 333.043823,271.785980
        	C333.167267,274.411591 333.120270,276.723816 333.408142,278.993500
        	C335.218170,293.263611 322.213409,311.451904 301.848755,307.973541
        	C293.514984,306.550079 288.781952,308.949890 284.197662,314.670074
        	C282.642029,316.611176 280.843597,318.359467 279.313629,320.318878
        	C278.072662,321.908142 277.408203,323.779816 277.246307,325.847870
        	C276.785889,331.728424 279.802094,336.945190 285.267456,339.554779
        	C289.990936,341.810120 295.465240,340.763885 299.872223,336.409668
        	C309.938354,326.463928 319.896027,316.408478 330.399567,305.899139
        M379.816254,338.176544
        	C368.615295,349.317841 357.362640,360.407837 346.238800,371.625580
        	C341.790802,376.111145 341.913025,381.415466 346.194183,385.690399
        	C351.171814,390.660797 355.491150,390.883087 360.464142,385.992249
        	C371.014099,375.616608 381.470032,365.143982 391.864380,354.612274
        	C396.272736,350.145630 396.833038,346.304962 394.146179,342.157349
        	C390.884857,337.122925 386.258270,335.641144 379.816254,338.176544
        M275.227753,301.751099
        	C275.813538,301.163361 276.332550,300.483368 276.996094,300.003082
        	C280.886536,297.187134 280.309448,294.769653 276.881378,291.803406
        	C272.752380,288.230652 268.979004,284.228882 265.219849,280.253815
        	C263.126221,278.039948 261.447296,278.102631 259.421936,280.245544
        	C256.459412,283.380005 253.192535,286.239502 250.364929,289.485840
        	C245.638168,294.912598 246.081116,302.435272 251.149918,307.461182
        	C256.268188,312.536133 263.540344,312.719025 269.035828,307.823608
        	C271.015686,306.059967 272.834259,304.115234 275.227753,301.751099
        z"/>
    <path fill="#000000" opacity="1.000000" stroke="none" d="
    M414.769501,383.763000
    	C436.543945,363.866364 467.457611,373.902039 476.445435,396.658478
    	C482.990479,413.229950 477.347931,432.356628 462.700256,442.149841
    	C447.596832,452.247833 427.482239,450.487549 414.966614,437.972504
    	C401.920715,424.927216 399.793701,404.980194 409.902252,389.900360
    	C411.286560,387.835266 412.963806,385.966583 414.769501,383.763000
    M419.292267,409.716980
    	C419.455536,425.882812 432.813416,436.459991 447.651642,432.172729
    	C457.946564,429.198181 464.983063,418.474518 463.541656,407.956238
    	C462.042847,397.019043 451.896698,388.265930 440.944946,388.461975
    	C429.911743,388.659454 420.788635,397.261200 419.292267,409.716980
    z"/>
</svg>
